SplineFontDB: 3.2
FontName: JaketoBlack
FullName: Jaketo Black
FamilyName: Jaketo
Weight: Black
Copyright: CC BY-SA 4.0 International\nby Izumi Rei (a.k.a. RedstoneDave)
UComments: "2022-4-7: Created with FontForge (http://fontforge.org)"
Version: 001.000
ItalicAngle: 0
UnderlinePosition: -102
UnderlineWidth: 51
Ascent: 819
Descent: 205
InvalidEm: 0
LayerCount: 2
Layer: 0 0 "Back" 1
Layer: 1 0 "Fore" 0
XUID: [1021 286 -633747124 26138]
StyleMap: 0x0000
FSType: 0
OS2Version: 0
OS2_WeightWidthSlopeOnly: 0
OS2_UseTypoMetrics: 1
CreationTime: 1649315736
ModificationTime: 1686912136
PfmFamily: 17
TTFWeight: 900
TTFWidth: 5
LineGap: 92
VLineGap: 0
OS2TypoAscent: 0
OS2TypoAOffset: 1
OS2TypoDescent: 0
OS2TypoDOffset: 1
OS2TypoLinegap: 92
OS2WinAscent: 0
OS2WinAOffset: 1
OS2WinDescent: 0
OS2WinDOffset: 1
HheadAscent: 0
HheadAOffset: 1
HheadDescent: 0
HheadDOffset: 1
OS2Vendor: 'PfEd'
OS2CodePages: 00000000.00000100
OS2UnicodeRanges: 00000000.10000000.00000000.00000000
Lookup: 260 0 0 "'mark' Mark Positioning in Jaketo lookup 0" { "'mark' Mark Positioning in Jaketo lookup 0-1"  } ['mark' ('DFLT' <'dflt' > 'latn' <'dflt' > ) ]
MarkAttachClasses: 1
DEI: 91125
LangName: 1033
Encoding: Custom
UnicodeInterp: none
NameList: AGL For New Fonts
DisplaySize: -48
AntiAlias: 1
FitToEm: 0
WinInfo: 0 30 10
BeginPrivate: 0
EndPrivate
TeXData: 1 0 0 346030 173015 115343 0 1048576 115343 783286 444596 497025 792723 393216 433062 380633 303038 157286 324010 404750 52429 2506097 1059062 262144
AnchorClass2: "JaketoTopSp" "'mark' Mark Positioning in Jaketo lookup 0-1" "JaketoBottom" "'mark' Mark Positioning in Jaketo lookup 0-1" "JaketoTop" "'mark' Mark Positioning in Jaketo lookup 0-1"
BeginChars: 510 30

StartChar: Jaketo.a
Encoding: 0 59136 0
Width: 542
Flags: HW
HStem: -8 63<184.201 323.336> 464 65<230.604 364.512>
VStem: 40 75<141.123 335.652> 434 75<192.271 382.239>
AnchorPoint: "JaketoTopSp" 328 601 basechar 0
AnchorPoint: "JaketoBottom" 227 -63 basechar 0
AnchorPoint: "JaketoTop" 314 568 basechar 0
LayerCount: 2
Fore
SplineSet
44 276 m 0
 69 423 187 529 310 529 c 0
 418 529 509 440 509 317 c 0
 509 300 507 282 505 265 c 0
 482 95 361 -8 238 -8 c 0
 130 -8 40 101 40 223 c 0
 40 240 41 258 44 276 c 0
118 276 m 0
 116 263 115 249 115 236 c 0
 115 160 162 55 246 55 c 0
 331 55 417 130 431 259 c 0
 432 270 434 282 434 293 c 0
 434 370 382 464 302 464 c 0
 213 464 133 368 118 276 c 0
EndSplineSet
EndChar

StartChar: Jaketo.sa
Encoding: 1 59137 1
Width: 563
Flags: HW
HStem: 0 21G<19 102.786> 452 69<230.945 394.694>
VStem: 86 66<449.187 503> 460 76<185.101 387.011>
AnchorPoint: "JaketoTopSp" 318 580 basechar 0
AnchorPoint: "JaketoBottom" 177 -63 basechar 0
AnchorPoint: "JaketoTop" 318 580 basechar 0
LayerCount: 2
Fore
SplineSet
19 0 m 1
 86 503 l 1
 152 503 l 1
 152 425 l 1
 152 425 167 463 180 475 c 0
 209 502 267 521 317 521 c 0
 353 521 379 518 413 505 c 0
 447 492 474 471 494 441 c 0
 521 401 536 343 536 286 c 0
 536 257 533 219 524 191 c 0
 515 163 500 131 464 88 c 2
 378 -15 l 1
 308 26 l 1
 385 111 l 2
 424 154 460 204 460 281 c 3
 460 335 450 390 410 419 c 0
 387 436 365 452 319 452 c 0
 264 452 212 425 192 400 c 0
 162 365 145 325 139 280 c 2
 100 0 l 1
 19 0 l 1
EndSplineSet
EndChar

StartChar: Jaketo.za
Encoding: 2 59138 2
Width: 563
Flags: HW
HStem: -10 72<282.258 395.171> 0 21G<23 105.623> 452 69<231.507 393.698>
VStem: 89 66<448.371 503> 206 74<64.7014 123.774> 460 71<250 387.215>
AnchorPoint: "JaketoTopSp" 324 590 basechar 0
AnchorPoint: "JaketoBottom" 183 -63 basechar 0
AnchorPoint: "JaketoTop" 325 589 basechar 0
LayerCount: 2
Fore
SplineSet
339 212 m 0xbc
 367 220 456 239 456 239 c 1
 456 239 460 260 460 285 c 0
 460 339 449 389 410 419 c 0
 387 436 365 452 319 452 c 0
 264 452 221 428 197 406 c 0
 164 376 149 353 143 305 c 2
 103 0 l 1
 23 0 l 1x7c
 89 503 l 1
 155 503 l 1
 155 423 l 1
 155 423 164 462 180 475 c 0
 210 500 271 521 321 521 c 0
 401 521 459 492 494 441 c 0
 522 401 531 343 531 286 c 0
 531 272 531 272 527 250 c 1
 558 255 l 1
 551 185 l 1
 522 180 l 1
 516 165 505 114 495 101 c 0
 448 40 398 -10 308 -10 c 0
 251 -10 206 38 206 68 c 0
 206 95 220 139 238 156 c 0
 265 182 307 203 339 212 c 0xbc
440 165 m 1
 440 165 353 147 339 142 c 0
 301 129 280 108 280 97 c 0
 280 82 290 62 316 62 c 0xbc
 357 62 392 71 416 104 c 0
 422 112 440 165 440 165 c 1
EndSplineSet
EndChar

StartChar: Jaketo.pa
Encoding: 3 59139 3
Width: 511
Flags: HW
HStem: -10 74<152.624 293.179> 0 21G<359 442.625>
VStem: 41 80<98.6896 372.719> 426 65<449.638 503>
AnchorPoint: "JaketoTopSp" 458 560 basechar 0
AnchorPoint: "JaketoBottom" 208 -63 basechar 0
AnchorPoint: "JaketoTop" 389 526 basechar 0
LayerCount: 2
Fore
SplineSet
426 503 m 1xb0
 491 503 l 1
 495 419 l 1
 440 0 l 1
 359 0 l 1x70
 368 74 l 1
 319 22 271 -10 209 -10 c 0
 170 -10 113 -2 77 49 c 0
 44 96 41 161 41 190 c 0
 41 218 48 267 51 291 c 2
 120 814 l 1
 200 814 l 1
 132 291 l 2
 129 267 121 211 121 193 c 0
 121 170 121 129 145 95 c 0
 165 64 207 64 224 64 c 0
 256 64 296 84 335 113 c 0
 355 127 370 155 381 168 c 1
 426 503 l 1xb0
EndSplineSet
EndChar

StartChar: Jaketo.ta
Encoding: 6 59142 4
Width: 563
Flags: HW
HStem: -9 76<150.052 302.996> 0 21G<401 484.673>
VStem: 28 85<104.886 287.413> 468 66<448.728 503>
AnchorPoint: "JaketoTopSp" 394 566 basechar 0
AnchorPoint: "JaketoBottom" 192 -63 basechar 0
AnchorPoint: "JaketoTop" 394 566 basechar 0
LayerCount: 2
Fore
SplineSet
468 503 m 1xb0
 534 503 l 1
 538 419 l 1
 482 0 l 1
 401 0 l 1x70
 414 104 l 1
 412 94 403 63 377 46 c 0
 325 12 282 -9 204 -9 c 0
 117 -9 62 50 39 118 c 0
 32 140 28 159 28 182 c 0
 28 305 107 409 183 470 c 2
 242 518 l 1
 312 496 l 1
 254 443 l 2
 183 380 113 299 113 176 c 0
 113 144 125 109 151 87 c 0
 169 71 196 67 221 67 c 0
 277 67 327 99 358 128 c 0
 398 166 410 187 433 238 c 1
 468 503 l 1xb0
EndSplineSet
EndChar

StartChar: Jaketo.da
Encoding: 7 59143 5
Width: 563
Flags: HW
HStem: -11 75<146.8 295.67> 0 21G<401 484.768>
VStem: 29 83<99.1381 265.466> 469 71<450.776 503>
AnchorPoint: "JaketoTopSp" 512 580 basechar 0
AnchorPoint: "JaketoBottom" 189 -63 basechar 0
AnchorPoint: "JaketoTop" 444 587 basechar 0
LayerCount: 2
Fore
SplineSet
469 503 m 1xb0
 535 503 l 1
 540 419 l 5
 482 0 l 1
 401 0 l 1x70
 413 87 l 1
 400 73 381 50 367 41 c 0
 314 9 278 -11 200 -11 c 0
 113 -11 62 48 39 116 c 0
 32 138 29 157 29 180 c 0
 29 311 134 393 183 432 c 2
 232 471 l 1
 232 471 192 511 159 569 c 0
 143 597 133 663 133 663 c 1
 185 663 l 1
 185 663 216 597 231 574 c 0
 260 531 289 497 316 471 c 1
 263 416 l 2
 223 374 112 304 112 165 c 0
 112 133 122 106 148 84 c 0
 166 68 193 64 218 64 c 0
 274 64 313 95 344 124 c 0
 384 162 411 197 434 248 c 1
 469 503 l 1xb0
EndSplineSet
EndChar

StartChar: Jaketo.na
Encoding: 8 59144 6
Width: 563
Flags: HW
HStem: -12 77<143.892 299.509> 0 21G<401 484.673> 452 65<229.269 311.252>
VStem: 27 73<117.822 265.561> 313 61<385.737 450.102> 468 66<448.728 503>
AnchorPoint: "JaketoTopSp" 416 567 basechar 0
AnchorPoint: "JaketoBottom" 208 -63 basechar 0
AnchorPoint: "JaketoTop" 416 567 basechar 0
LayerCount: 2
Fore
SplineSet
155 339 m 1x3c
 186 346 242 357 255 364 c 0
 289 381 313 400 313 419 c 0
 313 434 304 452 278 452 c 0
 250 452 222 430 187 385 c 0
 170 362 160 347 155 339 c 1x3c
468 503 m 1
 534 503 l 1
 538 419 l 1
 482 0 l 1
 401 0 l 1x7c
 415 102 l 1
 414 95 406 74 379 52 c 0
 331 13 275 -12 197 -12 c 0
 110 -12 60 53 37 121 c 0
 30 143 27 168 27 191 c 0
 27 220 44 265 44 265 c 1
 23 263 l 1
 39 323 l 1
 71 328 l 1
 80 345 92 372 104 388 c 0
 148 448 221 517 287 517 c 0
 305 517 327 511 342 500 c 0
 361 486 374 454 374 437 c 0
 374 410 367 379 348 356 c 0
 323 328 283 303 251 295 c 0
 243 293 193 278 146 270 c 0
 139 269 129 268 122 267 c 1
 113 249 100 229 100 195 c 0
 100 163 120 108 145 85 c 0
 163 69 190 65 215 65 c 0xbc
 271 65 330 99 361 128 c 0
 401 165 409 187 433 238 c 1
 468 503 l 1
EndSplineSet
EndChar

StartChar: Jaketo.ba
Encoding: 4 59140 7
Width: 508
Flags: HW
HStem: -9 74<150.624 290.443> 0 21G<356 440.055>
VStem: 33 80<108.801 317.524> 85 83<514.359 648.712> 423 65<456.684 503>
AnchorPoint: "JaketoTopSp" 457 581 basechar 0
AnchorPoint: "JaketoBottom" 202 -63 basechar 0
AnchorPoint: "JaketoTop" 389 532 basechar 0
LayerCount: 2
Fore
SplineSet
423 503 m 1xa8
 488 503 l 1
 501 419 l 1
 437 0 l 1
 356 0 l 1x68
 365 74 l 1
 327 19 269 -9 207 -9 c 0
 168 -9 111 -1 75 50 c 0
 42 97 33 158 33 187 c 0xa8
 33 215 36 252 44 288 c 0
 60 360 102 426 169 438 c 1
 140 441 85 504 85 552 c 0
 85 557 87 587 89 601 c 2
 117 814 l 1
 197 814 l 1
 172 599 l 2
 171 588 168 573 168 566 c 0x98
 168 523 224 471 251 471 c 1
 240 396 l 1
 171 386 139 342 125 288 c 0
 116 253 113 208 113 190 c 0
 113 167 119 130 143 96 c 0
 163 65 205 65 222 65 c 0
 254 65 294 85 333 114 c 0
 353 128 367 155 378 168 c 1
 423 503 l 1xa8
EndSplineSet
EndChar

StartChar: Jaketo.ma
Encoding: 5 59141 8
Width: 546
Flags: HW
HStem: -11 71<180.276 318.503> 0 21G<398 482.221> 466 72<225.692 369.044>
VStem: 41 76<125.767 341.713> 465 65<464.024 503>
AnchorPoint: "JaketoTopSp" 506 572 basechar 0
AnchorPoint: "JaketoBottom" 218 -63 basechar 0
AnchorPoint: "JaketoTop" 430 539 basechar 0
LayerCount: 2
Fore
SplineSet
124 303 m 0xb8
 120 290 117 242 117 229 c 0
 117 191 129 143 143 118 c 0
 160 89 209 60 246 60 c 0
 290 60 347 92 378 133 c 0
 412 178 439 250 439 299 c 0
 439 376 385 466 305 466 c 0
 216 466 150 392 124 303 c 0xb8
465 503 m 1
 530 503 l 1
 546 416 l 1
 479 0 l 1
 398 0 l 1x78
 408 68 l 1
 396 58 359 27 343 18 c 0
 308 -4 270 -11 231 -11 c 0
 192 -11 124 2 88 53 c 0
 55 100 41 161 41 190 c 0
 41 218 48 267 51 291 c 2
 120 814 l 1
 200 814 l 1
 152 435 l 1
 175 514 258 538 311 538 c 0
 361 538 454 510 458 442 c 1
 465 503 l 1
EndSplineSet
EndChar

StartChar: Jaketo.ka
Encoding: 9 59145 9
Width: 584
Flags: HW
HStem: -10 76<148.052 308.65>
VStem: 26 85<103.886 286.413> 374 86<-225 -167.306> 468 66<447.787 503>
AnchorPoint: "JaketoTopSp" 390 572 basechar 0
AnchorPoint: "JaketoBottom" 192 -63 basechar 0
AnchorPoint: "JaketoTop" 390 572 basechar 0
LayerCount: 2
Fore
SplineSet
468 503 m 1
 534 503 l 1
 538 419 l 1
 460 -225 l 1
 374 -225 l 1
 415 105 l 1
 412 86 402 61 375 43 c 0
 323 9 280 -10 202 -10 c 0
 115 -10 60 49 37 117 c 0
 30 139 26 158 26 181 c 0
 26 304 105 408 181 469 c 2
 240 517 l 1
 310 495 l 1
 252 442 l 2
 181 379 111 298 111 175 c 0
 111 143 123 108 149 86 c 0
 167 70 194 66 219 66 c 0
 275 66 335 96 366 125 c 0
 406 163 408 167 431 218 c 1
 468 503 l 1
EndSplineSet
EndChar

StartChar: Jaketo.ga
Encoding: 10 59146 10
Width: 563
Flags: HW
HStem: -8 75<154.8 309.741>
VStem: 37 83<102.138 266.852> 469 66<450.776 503>
AnchorPoint: "JaketoTopSp" 512 580 basechar 0
AnchorPoint: "JaketoBottom" 200 -63 basechar 0
AnchorPoint: "JaketoTop" 410 635 basechar 0
LayerCount: 2
Fore
SplineSet
469 503 m 1
 535 503 l 1
 539 419 l 1
 460 -225 l 1
 373 -225 l 1
 413 87 l 1
 400 73 380 53 366 44 c 0
 313 12 286 -8 208 -8 c 0
 121 -8 70 51 47 119 c 0
 40 141 37 160 37 183 c 0
 37 314 142 389 188 432 c 1
 237 471 l 1
 237 471 197 511 164 569 c 0
 148 597 138 663 138 663 c 1
 190 663 l 1
 190 663 221 597 236 574 c 0
 265 531 309 497 336 471 c 1
 268 416 l 2
 241 394 120 307 120 168 c 0
 120 136 130 109 156 87 c 0
 174 71 201 67 226 67 c 0
 282 67 332 98 363 127 c 0
 403 165 411 197 434 248 c 1
 469 503 l 1
EndSplineSet
EndChar

StartChar: Jaketo.nga
Encoding: 11 59147 11
Width: 563
Flags: HW
HStem: -12 77<159.892 309.356> 452 65<245.269 327.252>
VStem: 43 73<117.822 265.561> 329 61<385.737 450.102> 371 89<-225 -171.729> 468 66<448.728 503>
AnchorPoint: "JaketoTopSp" 422 571 basechar 0
AnchorPoint: "JaketoTop" 422 571 basechar 0
AnchorPoint: "JaketoBottom" 207 -63 basechar 0
LayerCount: 2
Fore
SplineSet
171 339 m 1xf4
 202 346 258 357 271 364 c 0
 305 381 329 400 329 419 c 0
 329 434 320 452 294 452 c 0
 266 452 238 430 203 385 c 0
 186 362 176 347 171 339 c 1xf4
468 503 m 1
 534 503 l 1
 538 419 l 1
 460 -225 l 1
 371 -225 l 1xec
 415 102 l 1
 414 95 407 74 380 52 c 0
 332 13 291 -12 213 -12 c 0
 126 -12 76 53 53 121 c 0
 46 143 43 168 43 191 c 0
 43 220 60 265 60 265 c 1
 39 263 l 1
 55 323 l 1
 87 328 l 1
 96 345 108 372 120 388 c 0
 164 448 237 517 303 517 c 0
 321 517 343 511 358 500 c 0
 377 486 390 454 390 437 c 0
 390 410 383 379 364 356 c 0
 339 328 299 303 267 295 c 0
 259 293 209 278 162 270 c 0
 155 269 145 268 138 267 c 1
 129 249 116 229 116 195 c 0
 116 163 136 108 161 85 c 0
 179 69 206 65 231 65 c 0
 287 65 346 106 377 135 c 0
 417 172 409 187 433 238 c 1
 468 503 l 1
EndSplineSet
EndChar

StartChar: Jaketo.Cl
Encoding: 12 59148 12
Width: 0
Flags: HW
HStem: 434 192
VStem: -58 114
AnchorPoint: "JaketoTopSp" -7 444 mark 0
LayerCount: 2
Fore
SplineSet
7 626 m 25
 56 524 l 25
 -7 434 l 25
 -58 534 l 25
 7 626 l 25
EndSplineSet
EndChar

StartChar: Jaketo.Cr
Encoding: 13 59149 13
Width: 0
Flags: HW
HStem: 444 192
VStem: -128 260
AnchorPoint: "JaketoTop" 0 420 mark 0
LayerCount: 2
Fore
SplineSet
-63 636 m 25
 -14 538 l 25
 -77 444 l 25
 -128 540 l 25
 -63 636 l 25
83 635 m 25
 132 537 l 25
 69 443 l 25
 18 539 l 25
 83 635 l 25
EndSplineSet
EndChar

StartChar: Jaketo.Cj
Encoding: 14 59150 14
Width: 0
Flags: HW
HStem: 519 70<-70.1574 70.1574>
AnchorPoint: "JaketoTop" -7 430 mark 0
LayerCount: 2
Fore
SplineSet
0 519 m 3
 -38 519 -49 512 -69 498 c 0
 -87 486 -129 441 -129 441 c 1
 -180 489 l 1
 -180 489 -135 539 -109 556 c 0
 -84 572 -42 589 0 589 c 3
 42 589 84 572 109 556 c 0
 135 539 180 489 180 489 c 1
 129 441 l 1
 129 441 87 486 69 498 c 0
 49 512 38 519 0 519 c 3
EndSplineSet
EndChar

StartChar: Jaketo.Cw
Encoding: 15 59151 15
Width: 0
Flags: HW
HStem: 451 70<-70.9898 70.9898>
AnchorPoint: "JaketoTop" -7 430 mark 0
LayerCount: 2
Fore
SplineSet
0 521 m 7
 38 521 48 527 68 541 c 4
 86 553 133 603 133 603 c 5
 185 555 l 5
 185 555 132 500 107 481 c 4
 85 464 42 451 0 451 c 7
 -42 451 -85 464 -107 481 c 4
 -132 500 -185 555 -185 555 c 5
 -133 603 l 5
 -133 603 -86 553 -68 541 c 4
 -48 527 -38 521 0 521 c 7
EndSplineSet
EndChar

StartChar: Jaketo.y
Encoding: 16 59152 16
Width: 0
Flags: HW
HStem: -170 166
VStem: -50 88
AnchorPoint: "JaketoBottom" -20 7 mark 0
LayerCount: 2
Fore
SplineSet
7 -4 m 29
 38 -95 l 29
 -17 -170 l 29
 -50 -81 l 29
 7 -4 l 29
EndSplineSet
EndChar

StartChar: Jaketo.i
Encoding: 17 59153 17
Width: 0
Flags: HW
HStem: 1 60<-41.692 11.9842>
VStem: 12 59<-51.207 0.961746>
AnchorPoint: "JaketoBottom" 20 31 mark 0 {} {150-150 3}
LayerCount: 2
Fore
SplineSet
-73 20 m 1
 -73 20 -66 35 -43 49 c 0
 -30 57 -17 61 0 61 c 3
 18 61 32 57 40 51 c 0
 62 36 71 17 71 -10 c 3
 71 -58 68 -65 27 -113 c 2
 -7 -153 l 1
 -60 -109 l 1
 -25 -69 l 2
 7 -33 12 -24 12 -10 c 3
 12 -4 8 1 0 1 c 3
 -4 1 -9 -1 -13 -4 c 0
 -17 -7 -26 -17 -26 -17 c 1
 -73 20 l 1
EndSplineSet
EndChar

StartChar: Jaketo.e
Encoding: 18 59154 18
Width: 0
Flags: HW
HStem: -159 248
VStem: 14 55<-65.29 -11.1351>
AnchorPoint: "JaketoBottom" 20 75 mark 0
LayerCount: 2
Fore
SplineSet
21 37 m 1
 27 35 34 33 39 30 c 0
 53 22 69 0 69 -17 c 0
 69 -26 68 -43 65 -52 c 0
 60 -66 53 -82 22 -120 c 2
 -10 -159 l 1
 -53 -124 l 1
 -22 -84 l 2
 2 -52 14 -35 14 -24 c 3
 14 -15 8 -11 0 -11 c 3
 -10 -11 -12 -15 -20 -26 c 1
 -68 3 l 1
 -44 39 l 2
 -23 71 -19 89 -19 89 c 1
 39 81 l 1
 39 81 37 58 28 46 c 2
 21 37 l 1
EndSplineSet
EndChar

StartChar: Jaketo.q
Encoding: 21 59157 19
Width: 0
Flags: HW
HStem: -170 166
VStem: -90 188
AnchorPoint: "JaketoBottom" 7 -7 mark 0
LayerCount: 2
Fore
SplineSet
64 -4 m 25
 98 -90 l 25
 46 -170 l 25
 10 -85 l 25
 64 -4 l 25
-36 -4 m 25
 -2 -90 l 25
 -54 -170 l 25
 -90 -85 l 25
 -36 -4 l 25
EndSplineSet
EndChar

StartChar: Jaketo.u
Encoding: 19 59155 20
Width: 0
Flags: HW
HStem: -158 218
VStem: -92 175
AnchorPoint: "JaketoBottom" 0 55 mark 0
LayerCount: 2
Fore
SplineSet
-48 60 m 17
 -32 45 -18 34 5 34 c 3
 20 34 39 42 52 52 c 1
 83 6 l 1
 35 -21 l 2
 17 -31 -1 -60 -15 -108 c 2
 -30 -158 l 1
 -92 -142 l 1
 -76 -95 l 2
 -61 -52 -50 -27 -29 -19 c 1
 -51 -14 -65 -6 -90 17 c 9
 -48 60 l 17
EndSplineSet
EndChar

StartChar: Jaketo.o
Encoding: 20 59156 21
Width: 0
Flags: HW
HStem: 116 54<-30.9489 33.4919>
VStem: -93 61<62.0228 114.846>
AnchorPoint: "JaketoBottom" 0 164 mark 0
LayerCount: 2
Fore
SplineSet
-93 84 m 7
 -93 134 -59 170 0 170 c 4
 18 170 35 163 50 155 c 5
 26 108 l 5
 18 115 11 116 -1 116 c 7
 -19 116 -32 106 -32 87 c 7
 -32 71 -18 61 -2 61 c 7
 13 61 20 65 33 76 c 5
 61 34 l 5
 18 6 l 6
 -8 -11 -40 -87 -51 -119 c 5
 -113 -105 l 5
 -98 -65 l 6
 -87 -37 -59 5 -40 14 c 5
 -67 26 -93 51 -93 84 c 7
EndSplineSet
EndChar

StartChar: Jaketo.Vn
Encoding: 22 59158 22
Width: 120
Flags: HW
LayerCount: 2
Fore
SplineSet
53 503 m 1
 119 503 l 1
 123 419 l 1
 67 0 l 1
 -14 0 l 5
 53 503 l 1
EndSplineSet
EndChar

StartChar: Jaketo.Vm
Encoding: 23 59159 23
Width: 120
Flags: HW
LayerCount: 2
Fore
SplineSet
-14 0 m 13
 84 814 l 5
 164 814 l 5
 67 0 l 21
 -14 0 l 13
EndSplineSet
EndChar

StartChar: Jaketo.Vj
Encoding: 24 59160 24
Width: 213
Flags: HW
LayerCount: 2
Fore
SplineSet
151 514 m 1
 217 495 l 1
 191 386 170 352 84 247 c 1
 147 202 184 96 197 14 c 1
 125 -6 l 1
 104 89 67 179 5 212 c 1
 16 284 l 1
 105 382 130 448 151 514 c 1
EndSplineSet
EndChar

StartChar: Jaketo.Vw
Encoding: 25 59161 25
Width: 213
Flags: HW
LayerCount: 2
Fore
SplineSet
82 435 m 1
 32 471 l 1
 48 498 73 530 132 530 c 3
 179 530 214 486 214 432 c 3
 214 378 154 290 79 249 c 1
 142 204 175 94 188 12 c 1
 116 -3 l 1
 104 79 67 185 5 218 c 1
 16 283 l 1
 86 334 150 382 150 434 c 3
 150 448 138 464 126 464 c 3
 107 464 95 456 82 435 c 1
EndSplineSet
EndChar

StartChar: Jaketo.Vs
Encoding: 26 59162 26
Width: 214
Flags: HW
LayerCount: 2
Fore
SplineSet
74 178 m 1
 122 144 164 98 189 18 c 1
 119 -6 l 1
 98 50 70 84 31 111 c 0
 8 127 -5 158 -5 177 c 3
 -5 215 39 249 65 267 c 0
 110 299 136 321 149 339 c 1
 105 370 60 419 23 478 c 1
 87 514 l 1
 109 480 141 437 182 404 c 0
 205 385 217 358 217 338 c 3
 217 309 194 278 152 244 c 0
 128 225 90 195 74 178 c 1
EndSplineSet
EndChar

StartChar: Jaketo.Vz
Encoding: 27 59163 27
Width: 214
Flags: HW
LayerCount: 2
Fore
SplineSet
73 667 m 4
 73 700 99 726 132 726 c 4
 165 726 191 700 191 667 c 4
 191 634 165 608 132 608 c 4
 99 608 73 634 73 667 c 4
74 178 m 1
 122 144 164 98 189 18 c 1
 119 -6 l 1
 98 50 70 84 31 111 c 0
 8 127 -5 158 -5 177 c 3
 -5 215 39 249 65 267 c 0
 110 299 136 321 149 339 c 1
 105 370 60 419 23 478 c 1
 87 514 l 1
 109 480 141 437 182 404 c 0
 205 385 217 358 217 338 c 3
 217 309 194 278 152 244 c 0
 128 225 90 195 74 178 c 1
EndSplineSet
EndChar

StartChar: Jaketo.Vx
Encoding: 28 59164 28
Width: 273
Flags: HW
LayerCount: 2
Fore
SplineSet
53 503 m 1
 134 503 l 1
 84 166 l 1
 203 503 l 1
 269 503 l 1
 273 419 l 1
 217 0 l 1
 136 0 l 1
 191 337 l 1
 67 0 l 1
 -14 0 l 1
 53 503 l 1
EndSplineSet
EndChar

StartChar: Jaketo.Vl
Encoding: 29 59165 29
Width: 232
Flags: HW
LayerCount: 2
Fore
SplineSet
199 36 m 1
 148 -10 l 1
 94 43 l 2
 35 101 14 169 14 239 c 3
 14 350 65 420 115 469 c 2
 157 510 l 1
 210 470 l 1
 167 427 l 2
 125 385 82 320 82 252 c 3
 82 191 100 131 146 87 c 2
 199 36 l 1
EndSplineSet
EndChar
